<svg width="1048" height="134" viewBox="0 0 1048 134" fill="none" xmlns="http://www.w3.org/2000/svg">
<path d="M1 20C1 9.50658 9.50659 1 20 1H454.474C464.967 1 473.474 9.50659 473.474 20V37.7844C473.474 48.2778 464.967 56.7844 454.474 56.7844H20C9.5066 56.7844 1 48.2778 1 37.7844V20ZM1 96.2156C1 85.7222 9.50659 77.2156 20 77.2156H454.474C464.967 77.2156 473.474 85.7222 473.474 96.2156V114C473.474 124.493 464.967 133 454.474 133H20C9.5066 133 1 124.493 1 114V96.2156ZM574.526 20C574.526 9.50658 583.033 1 593.526 1H1028C1038.49 1 1047 9.50659 1047 20V37.7844C1047 48.2778 1038.49 56.7844 1028 56.7844H593.526C583.033 56.7844 574.526 48.2778 574.526 37.7844V20ZM574.526 96.2156C574.526 85.7222 583.033 77.2156 593.526 77.2156H1028C1038.49 77.2156 1047 85.7222 1047 96.2156V114C1047 124.493 1038.49 133 1028 133H593.526C583.033 133 574.526 124.493 574.526 114V96.2156Z" fill="white" stroke="black" stroke-width="2"/>
</svg>
