<svg width="40" height="38" viewBox="0 0 40 38" fill="none" xmlns="http://www.w3.org/2000/svg">
<path fill-rule="evenodd" clip-rule="evenodd" d="M20.4438 0.149605C9.67429 0.149605 0.943848 8.43234 0.943848 18.6496C0.943848 28.8669 9.67429 37.1496 20.4438 37.1496C31.2134 37.1496 39.9438 28.8669 39.9438 18.6496C39.9438 8.43234 31.2134 0.149605 20.4438 0.149605ZM10.3052 15.4721H14.7243V28.0688H10.3052V15.4721ZM15.0153 11.5754C14.9867 10.3403 14.0557 9.3996 12.5439 9.3996C11.0322 9.3996 10.0438 10.3403 10.0438 11.5754C10.0438 12.785 11.003 13.7528 12.4866 13.7528H12.5148C14.0557 13.7528 15.0153 12.785 15.0153 11.5754ZM25.5733 15.1763C28.4813 15.1763 30.6613 16.9771 30.6613 20.8463L30.6612 28.0689H26.2422V21.3296C26.2422 19.6368 25.6027 18.4817 24.003 18.4817C22.7821 18.4817 22.0549 19.2604 21.7355 20.0126C21.6187 20.2821 21.59 20.6577 21.59 21.0341V28.0692H17.1704C17.1704 28.0692 17.2286 16.6545 17.1704 15.4724H21.59V17.2567C22.1765 16.399 23.227 15.1763 25.5733 15.1763Z" fill="white"/>
</svg>
