<svg width="40" height="38" viewBox="0 0 40 38" fill="none" xmlns="http://www.w3.org/2000/svg">
<path fill-rule="evenodd" clip-rule="evenodd" d="M20.4438 0.149605C9.67429 0.149605 0.943848 8.43234 0.943848 18.6496C0.943848 28.8669 9.67429 37.1496 20.4438 37.1496C31.2134 37.1496 39.9438 28.8669 39.9438 18.6496C39.9438 8.43234 31.2134 0.149605 20.4438 0.149605ZM19.9007 15.8268L19.8598 15.1866C19.7371 13.5275 20.8146 12.0121 22.5196 11.4242C23.147 11.2151 24.2109 11.189 24.9066 11.3719C25.1794 11.4503 25.6977 11.7116 26.066 11.9467L26.7343 12.3779L27.4709 12.1558C27.8801 12.0382 28.4256 11.8422 28.6712 11.7116C28.903 11.594 29.1076 11.5287 29.1076 11.5679C29.1076 11.79 28.603 12.5477 28.1801 12.9657C27.6073 13.5536 27.7709 13.6059 28.9303 13.214C29.626 12.9919 29.6396 12.9919 29.5032 13.2401C29.4214 13.3707 28.9985 13.828 28.5484 14.246C27.7846 14.9645 27.7437 15.0429 27.7437 15.6439C27.7437 16.5714 27.2799 18.5049 26.8161 19.5631C25.9568 21.5489 24.1155 23.5999 22.2741 24.632C19.6825 26.0821 16.2316 26.4479 13.3263 25.5987C12.3579 25.3113 10.6938 24.5797 10.6938 24.4491C10.6938 24.4099 11.1985 24.3576 11.8123 24.3446C13.0945 24.3185 14.3766 23.9788 15.4678 23.3778L16.2043 22.9598L15.3587 22.6854C14.1584 22.2935 13.0808 21.3921 12.808 20.5429C12.7262 20.2686 12.7535 20.2555 13.5173 20.2555L14.3084 20.2424L13.6401 19.942C12.8489 19.5631 12.126 18.923 11.7714 18.2698C11.5122 17.7995 11.1849 16.6106 11.2804 16.5192C11.3076 16.48 11.5941 16.5584 11.9214 16.6629C12.8626 16.9895 12.9853 16.9111 12.4397 16.3624C11.4168 15.3695 11.103 13.8933 11.5941 12.4954L11.826 11.8684L12.7262 12.7175C14.5676 14.4289 16.7363 15.4479 19.2188 15.7484L19.9007 15.8268Z" fill="white"/>
</svg>
