<svg width="18" height="17" viewBox="0 0 18 17" fill="none" xmlns="http://www.w3.org/2000/svg">
<path fill-rule="evenodd" clip-rule="evenodd" d="M8.51189 0.561012C8.69305 0.560743 8.88793 0.560826 9.09824 0.560915L9.44487 0.561012C12.2217 0.561012 12.5508 0.570467 13.6474 0.617746C14.6614 0.661735 15.2117 0.822481 15.5783 0.957533C16.0637 1.13637 16.4097 1.35015 16.7735 1.69548C17.1375 2.04082 17.3628 2.36971 17.5518 2.83016C17.6941 3.17756 17.8638 3.69967 17.9099 4.66168C17.9597 5.7018 17.9706 6.01425 17.9706 8.64745C17.9706 11.2806 17.9597 11.5931 17.9099 12.6332C17.8635 13.5952 17.6941 14.1173 17.5518 14.4647C17.3633 14.9252 17.1375 15.253 16.7735 15.5982C16.4095 15.9435 16.0639 16.1573 15.5783 16.3361C15.2122 16.4718 14.6614 16.6321 13.6474 16.6761C12.551 16.7234 12.2217 16.7337 9.44487 16.7337C6.66782 16.7337 6.3387 16.7234 5.24236 16.6761C4.22835 16.6317 3.67801 16.471 3.31119 16.3359C2.82585 16.1571 2.47918 15.9433 2.11517 15.598C1.75117 15.2526 1.52584 14.9246 1.3369 14.4639C1.19455 14.1165 1.0249 13.5944 0.978746 12.6324C0.928912 11.5923 0.918945 11.2798 0.918945 8.64498C0.918945 6.01014 0.928912 5.69934 0.978746 4.65922C1.02511 3.69721 1.19455 3.17509 1.3369 2.82729C1.5254 2.36684 1.75117 2.03794 2.11517 1.69261C2.47918 1.34727 2.82585 1.13349 3.31119 0.954244C3.67779 0.818576 4.22835 0.658241 5.24236 0.614046C6.20177 0.572934 6.57357 0.560601 8.51189 0.558545V0.561012ZM14.9964 2.19931C14.3074 2.19931 13.7483 2.72903 13.7483 3.38291C13.7483 4.03658 14.3074 4.56692 14.9964 4.56692C15.6854 4.56692 16.2444 4.03658 16.2444 3.38291C16.2444 2.72923 15.6854 2.1989 14.9964 2.1989V2.19931ZM4.10398 8.64971C4.10398 5.85152 6.49523 3.58282 9.44465 3.58271C12.3942 3.58271 14.7849 5.85145 14.7849 8.64971C14.7849 11.448 12.3944 13.7157 9.44487 13.7157C6.49535 13.7157 4.10398 11.448 4.10398 8.64971Z" fill="white"/>
</svg>
