<svg width="40" height="38" viewBox="0 0 40 38" fill="none" xmlns="http://www.w3.org/2000/svg">
<path fill-rule="evenodd" clip-rule="evenodd" d="M20.4438 0.149605C9.67429 0.149605 0.943848 8.43234 0.943848 18.6496C0.943848 28.8669 9.67429 37.1496 20.4438 37.1496C31.2134 37.1496 39.9438 28.8669 39.9438 18.6496C39.9438 8.43234 31.2134 0.149605 20.4438 0.149605ZM16.1565 8.84255C17.2659 8.79465 17.6203 8.78294 20.4448 8.78294H20.4416C23.2669 8.78294 23.6201 8.79465 24.7295 8.84255C25.8366 8.89065 26.5928 9.05695 27.2558 9.30094C27.9405 9.55275 28.519 9.88987 29.0975 10.4387C29.676 10.9871 30.0313 11.5376 30.2978 12.1866C30.5535 12.8139 30.729 13.5309 30.781 14.5813C30.8308 15.6338 30.8438 15.9701 30.8438 18.6497C30.8438 21.3294 30.8308 21.6648 30.781 22.7173C30.729 23.7673 30.5535 24.4845 30.2978 25.112C30.0313 25.7608 29.676 26.3113 29.0975 26.8597C28.5196 27.4085 27.9403 27.7465 27.2565 27.9985C26.5948 28.2425 25.8381 28.4088 24.731 28.4569C23.6216 28.5048 23.2682 28.5165 20.4435 28.5165C17.6192 28.5165 17.265 28.5048 16.1556 28.4569C15.0487 28.4088 14.2927 28.2425 13.631 27.9985C12.9474 27.7465 12.3672 27.4085 11.7893 26.8597C11.211 26.3113 10.8557 25.7608 10.5899 25.1118C10.3329 24.4845 10.1576 23.7675 10.1067 22.7171C10.0564 21.6646 10.0438 21.3294 10.0438 18.6497C10.0438 15.9701 10.0568 15.6336 10.1065 14.5811C10.1563 13.5311 10.3318 12.8139 10.5896 12.1864C10.8561 11.5376 11.2115 10.9871 11.79 10.4387C12.3681 9.89007 12.9483 9.55296 13.6323 9.30094C14.2936 9.05695 15.0493 8.89065 16.1565 8.84255Z" fill="white"/>
</svg>
